<svg width="39" height="25" viewBox="0 0 39 25" fill="none" xmlns="http://www.w3.org/2000/svg">
<path d="M13.3633 5.88037C12.318 5.57992 11.5563 5.21175 11.0781 4.77588C10.6042 4.33577 10.3672 3.79411 10.3672 3.15088C10.3672 2.42301 10.6571 1.8221 11.2368 1.34814C11.8208 0.869954 12.5783 0.630859 13.5093 0.630859C14.144 0.630859 14.709 0.753581 15.2041 0.999023C15.7035 1.24447 16.0885 1.58301 16.3594 2.01465C16.6344 2.44629 16.772 2.91813 16.772 3.43018H15.5469C15.5469 2.87158 15.3691 2.43359 15.0137 2.11621C14.6582 1.7946 14.1567 1.63379 13.5093 1.63379C12.9084 1.63379 12.4386 1.76709 12.1001 2.03369C11.7658 2.29606 11.5986 2.66211 11.5986 3.13184C11.5986 3.50846 11.7573 3.82796 12.0747 4.09033C12.3963 4.34847 12.9401 4.58545 13.7061 4.80127C14.4762 5.01709 15.0771 5.25618 15.5088 5.51855C15.9447 5.77669 16.2663 6.07926 16.4736 6.42627C16.6852 6.77327 16.791 7.18164 16.791 7.65137C16.791 8.40039 16.499 9.0013 15.915 9.4541C15.3311 9.90267 14.5503 10.127 13.5728 10.127C12.938 10.127 12.3455 10.0063 11.7954 9.76514C11.2453 9.51969 10.82 9.18538 10.5195 8.76221C10.2233 8.33903 10.0752 7.85872 10.0752 7.32129H11.3003C11.3003 7.87988 11.5055 8.3221 11.916 8.64795C12.3307 8.96956 12.883 9.13037 13.5728 9.13037C14.216 9.13037 14.709 8.99919 15.0518 8.73682C15.3945 8.47445 15.5659 8.11686 15.5659 7.66406C15.5659 7.21126 15.4072 6.86214 15.0898 6.6167C14.7725 6.36702 14.1969 6.12158 13.3633 5.88037ZM21.0249 10.127C20.0939 10.127 19.3364 9.82227 18.7524 9.21289C18.1685 8.59928 17.8765 7.78044 17.8765 6.75635V6.54053C17.8765 5.85921 18.0055 5.25195 18.2637 4.71875C18.526 4.18132 18.89 3.76237 19.3555 3.46191C19.8252 3.15723 20.333 3.00488 20.8789 3.00488C21.7718 3.00488 22.4658 3.29899 22.9609 3.88721C23.4561 4.47542 23.7036 5.31755 23.7036 6.41357V6.90234H19.0508C19.0677 7.57943 19.2645 8.12744 19.6411 8.54639C20.022 8.9611 20.5044 9.16846 21.0884 9.16846C21.5031 9.16846 21.8543 9.08382 22.1421 8.91455C22.4299 8.74528 22.6816 8.521 22.8975 8.2417L23.6147 8.80029C23.0392 9.68473 22.1759 10.127 21.0249 10.127ZM20.8789 3.96973C20.4049 3.96973 20.0072 4.14323 19.6855 4.49023C19.3639 4.83301 19.165 5.31543 19.0889 5.9375H22.5293V5.84863C22.4954 5.25195 22.3346 4.79069 22.0469 4.46484C21.7591 4.13477 21.3698 3.96973 20.8789 3.96973ZM26.6616 1.46875V3.13184H27.9438V4.03955H26.6616V8.29883C26.6616 8.57389 26.7188 8.78125 26.833 8.9209C26.9473 9.05632 27.1419 9.12402 27.417 9.12402C27.5524 9.12402 27.7386 9.09863 27.9756 9.04785V10C27.6667 10.0846 27.3662 10.127 27.0742 10.127C26.5495 10.127 26.1538 9.96826 25.8872 9.65088C25.6206 9.3335 25.4873 8.88281 25.4873 8.29883V4.03955H24.2368V3.13184H25.4873V1.46875H26.6616ZM6.58398 21.293C6.47852 22.1953 6.14453 22.8926 5.58203 23.3848C5.02344 23.873 4.2793 24.1172 3.34961 24.1172C2.3418 24.1172 1.5332 23.7559 0.923828 23.0332C0.318359 22.3105 0.015625 21.3438 0.015625 20.1328V19.3125C0.015625 18.5195 0.15625 17.8223 0.4375 17.2207C0.722656 16.6191 1.125 16.1582 1.64453 15.8379C2.16406 15.5137 2.76562 15.3516 3.44922 15.3516C4.35547 15.3516 5.08203 15.6055 5.62891 16.1133C6.17578 16.6172 6.49414 17.3164 6.58398 18.2109H5.45312C5.35547 17.5312 5.14258 17.0391 4.81445 16.7344C4.49023 16.4297 4.03516 16.2773 3.44922 16.2773C2.73047 16.2773 2.16602 16.543 1.75586 17.0742C1.34961 17.6055 1.14648 18.3613 1.14648 19.3418V20.168C1.14648 21.0938 1.33984 21.8301 1.72656 22.377C2.11328 22.9238 2.6543 23.1973 3.34961 23.1973C3.97461 23.1973 4.45312 23.0566 4.78516 22.7754C5.12109 22.4902 5.34375 21.9961 5.45312 21.293H6.58398ZM11.8691 23.373C11.4473 23.8691 10.8281 24.1172 10.0117 24.1172C9.33594 24.1172 8.82031 23.9219 8.46484 23.5312C8.11328 23.1367 7.93555 22.5547 7.93164 21.7852V17.6602H9.01562V21.7559C9.01562 22.7168 9.40625 23.1973 10.1875 23.1973C11.0156 23.1973 11.5664 22.8887 11.8398 22.2715V17.6602H12.9238V24H11.8926L11.8691 23.373ZM17.6406 18.6328C17.4766 18.6055 17.2988 18.5918 17.1074 18.5918C16.3965 18.5918 15.9141 18.8945 15.6602 19.5V24H14.5762V17.6602H15.6309L15.6484 18.3926C16.0039 17.8262 16.5078 17.543 17.1602 17.543C17.3711 17.543 17.5312 17.5703 17.6406 17.625V18.6328ZM21.707 18.6328C21.543 18.6055 21.3652 18.5918 21.1738 18.5918C20.4629 18.5918 19.9805 18.8945 19.7266 19.5V24H18.6426V17.6602H19.6973L19.7148 18.3926C20.0703 17.8262 20.5742 17.543 21.2266 17.543C21.4375 17.543 21.5977 17.5703 21.707 17.625V18.6328ZM25.2227 24.1172C24.3633 24.1172 23.6641 23.8359 23.125 23.2734C22.5859 22.707 22.3164 21.9512 22.3164 21.0059V20.8066C22.3164 20.1777 22.4355 19.6172 22.6738 19.125C22.916 18.6289 23.252 18.2422 23.6816 17.9648C24.1152 17.6836 24.584 17.543 25.0879 17.543C25.9121 17.543 26.5527 17.8145 27.0098 18.3574C27.4668 18.9004 27.6953 19.6777 27.6953 20.6895V21.1406H23.4004C23.416 21.7656 23.5977 22.2715 23.9453 22.6582C24.2969 23.041 24.7422 23.2324 25.2812 23.2324C25.6641 23.2324 25.9883 23.1543 26.2539 22.998C26.5195 22.8418 26.752 22.6348 26.9512 22.377L27.6133 22.8926C27.082 23.709 26.2852 24.1172 25.2227 24.1172ZM25.0879 18.4336C24.6504 18.4336 24.2832 18.5938 23.9863 18.9141C23.6895 19.2305 23.5059 19.6758 23.4355 20.25H26.6113V20.168C26.5801 19.6172 26.4316 19.1914 26.166 18.8906C25.9004 18.5859 25.541 18.4336 25.0879 18.4336ZM29.9805 17.6602L30.0156 18.457C30.5 17.8477 31.1328 17.543 31.9141 17.543C33.2539 17.543 33.9297 18.2988 33.9414 19.8105V24H32.8574V19.8047C32.8535 19.3477 32.748 19.0098 32.541 18.791C32.3379 18.5723 32.0195 18.4629 31.5859 18.4629C31.2344 18.4629 30.9258 18.5566 30.6602 18.7441C30.3945 18.9316 30.1875 19.1777 30.0391 19.4824V24H28.9551V17.6602H29.9805ZM37.0469 16.125V17.6602H38.2305V18.498H37.0469V22.4297C37.0469 22.6836 37.0996 22.875 37.2051 23.0039C37.3105 23.1289 37.4902 23.1914 37.7441 23.1914C37.8691 23.1914 38.041 23.168 38.2598 23.1211V24C37.9746 24.0781 37.6973 24.1172 37.4277 24.1172C36.9434 24.1172 36.5781 23.9707 36.332 23.6777C36.0859 23.3848 35.9629 22.9688 35.9629 22.4297V18.498H34.8086V17.6602H35.9629V16.125H37.0469Z" fill="black"/>
</svg>
